<?xml version="1.0" encoding="UTF-8" standalone="no"?>
<!DOCTYPE svg PUBLIC "-//W3C//DTD SVG 1.1//EN"
 "http://www.w3.org/Graphics/SVG/1.1/DTD/svg11.dtd">
<!-- Generated by graphviz version 6.0.2 (20221011.1828)
 -->
<!-- Pages: 1 -->
<svg width="1157pt" height="128pt"
 viewBox="0.00 0.00 1157.00 128.00" xmlns="http://www.w3.org/2000/svg" xmlns:xlink="http://www.w3.org/1999/xlink">
<g id="graph0" class="graph" transform="scale(1 1) rotate(0) translate(4 124)">
<polygon fill="white" stroke="none" points="-4,4 -4,-124 1153,-124 1153,4 -4,4"/>
<!-- 1718876013616 -->
<g id="node1" class="node">
<title>1718876013616</title>
<polygon fill="none" stroke="black" points="319,-83.5 319,-119.5 513,-119.5 513,-83.5 319,-83.5"/>
<text text-anchor="middle" x="330.5" y="-97.8" font-family="Times New Roman,serif" font-size="14.00">c</text>
<polyline fill="none" stroke="black" points="342,-83.5 342,-119.5"/>
<text text-anchor="middle" x="386" y="-97.8" font-family="Times New Roman,serif" font-size="14.00">data 10.0000</text>
<polyline fill="none" stroke="black" points="430,-83.5 430,-119.5"/>
<text text-anchor="middle" x="471.5" y="-97.8" font-family="Times New Roman,serif" font-size="14.00">grad 0.0000</text>
</g>
<!-- 1718876013664+ -->
<g id="node3" class="node">
<title>1718876013664+</title>
<ellipse fill="none" stroke="black" cx="576" cy="-73.5" rx="27" ry="18"/>
<text text-anchor="middle" x="576" y="-69.8" font-family="Times New Roman,serif" font-size="14.00">+</text>
</g>
<!-- 1718876013616&#45;&gt;1718876013664+ -->
<g id="edge6" class="edge">
<title>1718876013616&#45;&gt;1718876013664+</title>
<path fill="none" stroke="black" d="M513.01,-84.49C522.35,-82.83 531.37,-81.23 539.49,-79.79"/>
<polygon fill="black" stroke="black" points="540.37,-83.19 549.6,-78 539.15,-76.3 540.37,-83.19"/>
</g>
<!-- 1718876013664 -->
<g id="node2" class="node">
<title>1718876013664</title>
<polygon fill="none" stroke="black" points="640,-55.5 640,-91.5 828,-91.5 828,-55.5 640,-55.5"/>
<text text-anchor="middle" x="652" y="-69.8" font-family="Times New Roman,serif" font-size="14.00">d</text>
<polyline fill="none" stroke="black" points="664,-55.5 664,-91.5"/>
<text text-anchor="middle" x="704.5" y="-69.8" font-family="Times New Roman,serif" font-size="14.00">data 4.0000</text>
<polyline fill="none" stroke="black" points="745,-55.5 745,-91.5"/>
<text text-anchor="middle" x="786.5" y="-69.8" font-family="Times New Roman,serif" font-size="14.00">grad 0.0000</text>
</g>
<!-- 1718876013808* -->
<g id="node5" class="node">
<title>1718876013808*</title>
<ellipse fill="none" stroke="black" cx="892" cy="-45.5" rx="27" ry="18"/>
<text text-anchor="middle" x="892" y="-41.8" font-family="Times New Roman,serif" font-size="14.00">*</text>
</g>
<!-- 1718876013664&#45;&gt;1718876013808* -->
<g id="edge8" class="edge">
<title>1718876013664&#45;&gt;1718876013808*</title>
<path fill="none" stroke="black" d="M828.45,-56.73C838.03,-55.01 847.29,-53.35 855.61,-51.85"/>
<polygon fill="black" stroke="black" points="856.38,-55.27 865.61,-50.06 855.15,-48.38 856.38,-55.27"/>
</g>
<!-- 1718876013664+&#45;&gt;1718876013664 -->
<g id="edge1" class="edge">
<title>1718876013664+&#45;&gt;1718876013664</title>
<path fill="none" stroke="black" d="M603.11,-73.5C610.9,-73.5 619.95,-73.5 629.59,-73.5"/>
<polygon fill="black" stroke="black" points="629.81,-77 639.81,-73.5 629.81,-70 629.81,-77"/>
</g>
<!-- 1718876013808 -->
<g id="node4" class="node">
<title>1718876013808</title>
<polygon fill="none" stroke="black" points="955,-27.5 955,-63.5 1149,-63.5 1149,-27.5 955,-27.5"/>
<text text-anchor="middle" x="967.5" y="-41.8" font-family="Times New Roman,serif" font-size="14.00">L</text>
<polyline fill="none" stroke="black" points="980,-27.5 980,-63.5"/>
<text text-anchor="middle" x="1023" y="-41.8" font-family="Times New Roman,serif" font-size="14.00">data &#45;8.0000</text>
<polyline fill="none" stroke="black" points="1066,-27.5 1066,-63.5"/>
<text text-anchor="middle" x="1107.5" y="-41.8" font-family="Times New Roman,serif" font-size="14.00">grad 0.0000</text>
</g>
<!-- 1718876013808*&#45;&gt;1718876013808 -->
<g id="edge2" class="edge">
<title>1718876013808*&#45;&gt;1718876013808</title>
<path fill="none" stroke="black" d="M919.09,-45.5C926.62,-45.5 935.34,-45.5 944.63,-45.5"/>
<polygon fill="black" stroke="black" points="944.92,-49 954.92,-45.5 944.92,-42 944.92,-49"/>
</g>
<!-- 1718894625552 -->
<g id="node6" class="node">
<title>1718894625552</title>
<polygon fill="none" stroke="black" points="0,-56.5 0,-92.5 193,-92.5 193,-56.5 0,-56.5"/>
<text text-anchor="middle" x="12" y="-70.8" font-family="Times New Roman,serif" font-size="14.00">b</text>
<polyline fill="none" stroke="black" points="24,-56.5 24,-92.5"/>
<text text-anchor="middle" x="67" y="-70.8" font-family="Times New Roman,serif" font-size="14.00">data &#45;3.0000</text>
<polyline fill="none" stroke="black" points="110,-56.5 110,-92.5"/>
<text text-anchor="middle" x="151.5" y="-70.8" font-family="Times New Roman,serif" font-size="14.00">grad 0.0000</text>
</g>
<!-- 1718876013856* -->
<g id="node8" class="node">
<title>1718876013856*</title>
<ellipse fill="none" stroke="black" cx="256" cy="-46.5" rx="27" ry="18"/>
<text text-anchor="middle" x="256" y="-42.8" font-family="Times New Roman,serif" font-size="14.00">*</text>
</g>
<!-- 1718894625552&#45;&gt;1718876013856* -->
<g id="edge9" class="edge">
<title>1718894625552&#45;&gt;1718876013856*</title>
<path fill="none" stroke="black" d="M193.2,-57.49C202.52,-55.83 211.5,-54.23 219.6,-52.79"/>
<polygon fill="black" stroke="black" points="220.45,-56.2 229.68,-51 219.23,-49.31 220.45,-56.2"/>
</g>
<!-- 1718876013856 -->
<g id="node7" class="node">
<title>1718876013856</title>
<polygon fill="none" stroke="black" points="320,-28.5 320,-64.5 512,-64.5 512,-28.5 320,-28.5"/>
<text text-anchor="middle" x="331.5" y="-42.8" font-family="Times New Roman,serif" font-size="14.00">e</text>
<polyline fill="none" stroke="black" points="343,-28.5 343,-64.5"/>
<text text-anchor="middle" x="386" y="-42.8" font-family="Times New Roman,serif" font-size="14.00">data &#45;6.0000</text>
<polyline fill="none" stroke="black" points="429,-28.5 429,-64.5"/>
<text text-anchor="middle" x="470.5" y="-42.8" font-family="Times New Roman,serif" font-size="14.00">grad 0.0000</text>
</g>
<!-- 1718876013856&#45;&gt;1718876013664+ -->
<g id="edge7" class="edge">
<title>1718876013856&#45;&gt;1718876013664+</title>
<path fill="none" stroke="black" d="M512.1,-62.75C521.75,-64.4 531.07,-65.99 539.44,-67.42"/>
<polygon fill="black" stroke="black" points="539.04,-70.91 549.49,-69.14 540.22,-64.01 539.04,-70.91"/>
</g>
<!-- 1718876013856*&#45;&gt;1718876013856 -->
<g id="edge3" class="edge">
<title>1718876013856*&#45;&gt;1718876013856</title>
<path fill="none" stroke="black" d="M283.09,-46.5C290.9,-46.5 299.98,-46.5 309.66,-46.5"/>
<polygon fill="black" stroke="black" points="309.93,-50 319.93,-46.5 309.93,-43 309.93,-50"/>
</g>
<!-- 1718876013904 -->
<g id="node9" class="node">
<title>1718876013904</title>
<polygon fill="none" stroke="black" points="639,-0.5 639,-36.5 829,-36.5 829,-0.5 639,-0.5"/>
<text text-anchor="middle" x="649.5" y="-14.8" font-family="Times New Roman,serif" font-size="14.00">f</text>
<polyline fill="none" stroke="black" points="660,-0.5 660,-36.5"/>
<text text-anchor="middle" x="703" y="-14.8" font-family="Times New Roman,serif" font-size="14.00">data &#45;2.0000</text>
<polyline fill="none" stroke="black" points="746,-0.5 746,-36.5"/>
<text text-anchor="middle" x="787.5" y="-14.8" font-family="Times New Roman,serif" font-size="14.00">grad 0.0000</text>
</g>
<!-- 1718876013904&#45;&gt;1718876013808* -->
<g id="edge5" class="edge">
<title>1718876013904&#45;&gt;1718876013808*</title>
<path fill="none" stroke="black" d="M829.34,-34.83C838.62,-36.44 847.58,-37.99 855.66,-39.38"/>
<polygon fill="black" stroke="black" points="855.27,-42.87 865.72,-41.12 856.46,-35.97 855.27,-42.87"/>
</g>
<!-- 1718876017120 -->
<g id="node10" class="node">
<title>1718876017120</title>
<polygon fill="none" stroke="black" points="3,-1.5 3,-37.5 190,-37.5 190,-1.5 3,-1.5"/>
<text text-anchor="middle" x="14.5" y="-15.8" font-family="Times New Roman,serif" font-size="14.00">a</text>
<polyline fill="none" stroke="black" points="26,-1.5 26,-37.5"/>
<text text-anchor="middle" x="66.5" y="-15.8" font-family="Times New Roman,serif" font-size="14.00">data 2.0000</text>
<polyline fill="none" stroke="black" points="107,-1.5 107,-37.5"/>
<text text-anchor="middle" x="148.5" y="-15.8" font-family="Times New Roman,serif" font-size="14.00">grad 0.0000</text>
</g>
<!-- 1718876017120&#45;&gt;1718876013856* -->
<g id="edge4" class="edge">
<title>1718876017120&#45;&gt;1718876013856*</title>
<path fill="none" stroke="black" d="M190.03,-35.36C200.52,-37.16 210.68,-38.9 219.72,-40.45"/>
<polygon fill="black" stroke="black" points="219.33,-43.94 229.77,-42.18 220.51,-37.04 219.33,-43.94"/>
</g>
</g>
</svg>
